<svg version="1.1" id="Layer_1" xmlns="http://www.w3.org/2000/svg" xmlns:xlink="http://www.w3.org/1999/xlink" x="0px" y="0px"
	 width="100%" viewBox="0 0 750 105" enable-background="new 0 0 750 105" xml:space="preserve">
<path fill="#FFFFFF" opacity="1.000000" stroke="none" 
	d="
M560.000000,106.000000 
	C373.333344,106.000000 187.166672,106.000000 1.000000,106.000000 
	C1.000000,71.000000 1.000000,36.000000 1.000000,1.000000 
	C251.000000,1.000000 501.000000,1.000000 751.000000,1.000000 
	C751.000000,36.000000 751.000000,71.000000 751.000000,106.000000 
	C687.500000,106.000000 624.000000,106.000000 560.000000,106.000000 
M60.528717,30.895882 
	C60.630260,30.603710 60.731800,30.311539 61.161079,29.338623 
	C64.839195,24.346710 64.956726,18.805977 61.486385,14.002946 
	C58.705215,10.153752 53.152603,8.402121 48.483292,9.900983 
	C41.405449,12.172992 38.845726,15.151379 39.036659,21.710970 
	C39.409191,34.509438 31.476072,41.825504 19.702900,41.987854 
	C10.527193,42.114384 6.906185,45.768715 7.000028,54.992363 
	C7.059180,60.806313 10.936049,65.168213 17.471275,66.773659 
	C21.929064,67.868752 28.212393,64.683273 29.912569,59.736286 
	C30.944056,56.734982 30.358389,53.214539 31.111059,50.073948 
	C33.425819,40.415359 38.813648,34.029915 50.084534,34.066658 
	C53.871395,34.079002 57.259830,33.625919 60.528717,30.895882 
M61.165081,94.333687 
	C62.110058,90.658310 63.459084,87.031616 63.909145,83.296608 
	C64.660004,77.065315 66.686615,71.642563 72.775261,69.199936 
	C76.287903,67.790756 80.300606,67.440071 84.132538,67.061317 
	C89.162796,66.564110 95.209137,61.960445 95.980476,57.572105 
	C97.128319,51.041718 94.432632,45.442181 88.845703,42.956173 
	C79.795128,38.928947 69.994553,46.053165 71.121819,55.152172 
	C72.433929,65.743095 62.950573,75.306587 52.500530,73.995850 
	C46.592590,73.254845 40.982800,77.786354 39.507877,82.947021 
	C37.862934,88.702568 39.636089,93.626747 45.021496,97.491959 
	C48.824924,100.221748 55.284378,99.507271 60.528717,95.895882 
	C60.630260,95.603714 60.731800,95.311546 61.165081,94.333687 
M567.476074,73.961433 
	C570.919678,79.476326 574.323547,85.016792 577.843384,90.482628 
	C578.480713,91.472366 579.567505,92.834923 580.490906,92.870193 
	C586.244507,93.089943 592.010681,92.980980 597.637939,92.980980 
	C597.637939,67.284798 597.637939,42.229740 597.637939,17.225924 
	C592.663757,17.225924 588.054749,17.225924 582.947815,17.225924 
	C582.947815,34.771503 582.947815,52.099850 582.947815,70.599831 
	C572.043457,52.066013 561.785217,34.630341 551.603760,17.325130 
	C545.412415,17.325130 539.327332,17.325130 533.357910,17.325130 
	C533.357910,42.706711 533.357910,67.761566 533.357910,92.778198 
	C538.327759,92.778198 542.936523,92.778198 547.552673,92.778198 
	C547.552673,75.434647 547.552673,58.312347 547.552673,39.900425 
	C554.432922,51.694141 560.746521,62.516472 567.476074,73.961433 
M616.000000,47.500000 
	C616.000000,62.580196 616.000000,77.660393 616.000000,92.661469 
	C635.686646,92.661469 654.733459,92.661469 673.623291,92.661469 
	C673.623291,87.924187 673.623291,83.531296 673.623291,78.850822 
	C659.981140,78.850822 646.713745,78.850822 633.262329,78.850822 
	C633.262329,72.823067 633.262329,67.101379 633.262329,60.898735 
	C643.575745,60.898735 653.636841,60.898735 663.670044,60.898735 
	C663.670044,56.352528 663.670044,52.296295 663.670044,47.764091 
	C653.285950,47.764091 643.225586,47.764091 633.219604,47.764091 
	C633.219604,42.005127 633.219604,36.732544 633.219604,30.986837 
	C646.485596,30.986837 659.542786,30.986837 672.716431,30.986837 
	C672.716431,26.112625 672.716431,21.722904 672.716431,17.304756 
	C653.718811,17.304756 635.006348,17.304756 616.000000,17.304756 
	C616.000000,27.237890 616.000000,36.868946 616.000000,47.500000 
M429.000000,75.498360 
	C429.000000,80.930504 429.000000,86.362656 429.000000,91.692085 
	C432.664246,91.692085 435.734894,91.692085 438.694519,91.692085 
	C438.694519,66.657005 438.694519,41.930992 438.694519,17.000135 
	C434.578918,17.000135 430.736237,16.728716 426.967987,17.139582 
	C425.547974,17.294411 423.570496,18.761011 423.084198,20.084269 
	C416.601532,37.722881 410.342407,55.443600 404.013977,73.139000 
	C403.518982,74.523102 402.922668,75.870979 402.144135,77.805481 
	C394.777252,56.944813 387.741364,37.021328 380.781921,17.314396 
	C375.674713,17.314396 370.930878,17.314396 366.306580,17.314396 
	C366.306580,42.360973 366.306580,67.092056 366.306580,91.677444 
	C369.356689,91.677444 372.092346,91.677444 375.247192,91.677444 
	C375.247192,72.398582 375.247192,53.439739 375.247192,34.480900 
	C375.614990,34.399673 375.982788,34.318443 376.350555,34.237217 
	C383.429504,53.424690 390.508484,72.612160 397.661316,91.999947 
	C398.573914,91.999947 399.598206,91.828384 400.543701,92.028625 
	C405.548279,93.088516 407.550598,90.600723 409.068939,86.098419 
	C413.585052,72.706802 418.528809,59.458210 423.395966,46.186928 
	C424.769501,42.441708 426.454163,38.810585 427.996094,35.127132 
	C428.330750,35.263767 428.665375,35.400402 429.000000,35.537041 
	C429.000000,48.524277 429.000000,61.511513 429.000000,75.498360 
M258.062775,34.513042 
	C256.332275,31.801750 254.897507,28.835627 252.819321,26.423964 
	C244.515900,16.788260 233.325363,14.783593 221.572830,16.174095 
	C212.966507,17.192356 205.156647,20.697672 199.934723,28.379066 
	C192.701874,39.018536 191.053238,50.511433 192.779877,63.183811 
	C194.199783,73.604858 198.550232,81.990334 206.834793,87.842056 
	C215.877121,94.229004 226.259277,95.124931 237.022888,92.562653 
	C243.568558,91.004448 249.572861,88.044502 253.432724,82.832130 
	C264.339294,68.103912 264.264587,51.808212 258.062775,34.513042 
M345.969116,63.032555 
	C345.979401,58.369621 346.251862,53.689251 345.943207,49.047527 
	C345.371704,40.453484 342.591400,32.674538 336.682129,26.152746 
	C328.280426,16.880154 317.349640,14.813367 305.791199,16.143621 
	C292.942474,17.622370 283.513977,24.612659 279.116333,37.040134 
	C276.113373,45.526237 275.158966,54.257515 276.860168,63.427460 
	C280.193146,81.393082 287.993591,89.761436 305.852753,93.029892 
	C320.116516,95.640350 332.513519,90.654121 339.918213,78.490227 
	C342.596924,74.089874 343.773804,68.775299 345.969116,63.032555 
M163.475616,82.975029 
	C164.827103,84.979576 166.036987,87.102585 167.579987,88.946922 
	C168.603821,90.170700 170.016418,91.683968 171.409012,91.861855 
	C174.738007,92.287086 178.158096,91.999153 181.868927,91.999153 
	C174.719101,81.061913 167.922638,70.665222 160.973755,60.035366 
	C162.086517,59.531960 162.637924,59.194950 163.236725,59.024860 
	C171.143448,56.778984 175.750198,51.077515 176.791718,43.459862 
	C177.944397,35.029076 176.432388,27.084658 168.321030,21.595921 
	C161.435974,16.937000 153.955719,16.961611 146.284470,16.993019 
	C138.544342,17.024710 130.803970,17.000000 123.349754,17.000000 
	C123.349754,42.462887 123.349754,67.186775 123.349754,91.633171 
	C126.775024,91.633171 129.844757,91.633171 133.315948,91.633171 
	C133.315948,81.534439 133.315948,71.800613 133.315948,62.000278 
	C138.228577,62.000278 142.731476,61.838512 147.209549,62.100643 
	C148.522064,62.177475 150.205338,63.150501 150.965057,64.238838 
	C155.120041,70.191040 159.040298,76.307098 163.475616,82.975029 
M502.502502,33.001751 
	C504.191803,34.931171 505.881104,36.860592 507.528595,38.742268 
	C509.584839,37.101418 511.810333,35.641441 513.588928,33.759167 
	C514.359009,32.944172 514.835449,30.907660 514.349731,30.037687 
	C513.174988,27.933687 511.556946,25.969015 509.764435,24.335772 
	C498.202545,13.800804 479.926575,13.618734 468.365936,20.271818 
	C459.834320,25.181728 456.695648,33.050911 458.148163,42.321278 
	C459.511108,51.019810 465.802582,55.253693 474.141113,57.100685 
	C481.829559,58.803677 489.442139,60.880478 497.025848,63.014126 
	C502.379852,64.520462 506.151001,68.835793 505.984131,72.700974 
	C505.800507,76.953842 500.950043,81.893272 495.867737,83.002258 
	C482.981995,85.814011 471.940552,83.543892 464.199615,71.745628 
	C463.688110,70.966049 461.619934,70.236649 461.069031,70.620964 
	C458.585785,72.353302 456.388580,74.495697 453.987305,76.577850 
	C455.862610,79.121758 457.267761,81.822830 459.376282,83.757217 
	C471.634674,95.003265 493.185852,97.280205 507.288727,88.245926 
	C514.878052,83.384216 516.951172,76.123100 515.884094,67.923744 
	C514.912842,60.461277 510.169098,55.778870 502.786743,53.958858 
	C494.665222,51.956615 486.537628,49.979168 478.413605,47.987190 
	C473.184265,46.704987 468.067993,41.571400 468.011627,37.558521 
	C467.953674,33.433907 472.624969,27.179333 477.459625,26.306740 
	C486.426910,24.688253 495.336243,24.427824 502.502502,33.001751 
M685.638428,17.000021 
	C684.196533,17.079014 682.754639,17.158007 681.319153,17.236649 
	C681.319153,21.962311 681.319153,26.350363 681.319153,31.213722 
	C689.690857,31.213722 697.750793,31.213722 706.251221,31.213722 
	C706.251221,52.068375 706.251221,72.443764 706.251221,92.609314 
	C711.779968,92.609314 716.840759,92.609314 722.159851,92.609314 
	C722.159851,71.965393 722.159851,51.711010 722.159851,30.979141 
	C730.491943,30.979141 738.553650,30.979141 746.713989,30.979141 
	C746.713989,26.105078 746.713989,21.716951 746.713989,17.407104 
	C746.128357,17.229258 745.825073,17.056829 745.521484,17.056402 
	C725.885681,17.028719 706.249817,17.014980 685.638428,17.000021 
M19.634808,74.000000 
	C10.915064,74.142181 6.945081,78.444603 7.000015,87.692810 
	C7.036856,93.894997 11.395899,98.576683 17.526533,98.998474 
	C24.826256,99.500702 30.101757,95.689072 30.973812,89.138008 
	C31.277308,86.858086 30.945545,84.471527 31.409615,82.238785 
	C33.605267,71.675003 39.263508,67.189674 50.303440,66.999947 
	C59.407112,66.843491 66.129478,59.027466 63.603317,51.188087 
	C61.587219,44.931576 56.719387,40.910450 48.811375,42.000450 
	C42.800861,42.828907 38.420822,47.721478 39.138813,54.637783 
	C40.259182,65.430130 29.861456,75.382782 19.634808,74.000000 
M26.570955,32.079613 
	C27.797428,30.474258 29.347742,29.020819 30.186216,27.233448 
	C32.237267,22.861237 30.595184,15.533248 27.234814,12.750214 
	C23.425705,9.595536 15.561133,8.961391 12.007050,11.522351 
	C5.678905,16.082211 4.011279,23.470360 8.284360,29.547438 
	C11.411009,33.994087 18.237841,37.801609 26.570955,32.079613 
M78.926643,33.956436 
	C81.587296,33.971836 84.316574,34.376335 86.894341,33.921749 
	C92.282822,32.971485 95.836937,28.357113 95.999718,22.779257 
	C96.163589,17.164312 92.762733,11.479418 88.451630,10.161826 
	C81.992172,8.187643 76.129402,10.534798 72.819641,15.329184 
	C69.045692,20.795969 71.136925,30.460831 78.926643,33.956436 
M77.571075,97.121857 
	C84.575203,100.874825 91.977135,98.828560 95.158638,92.432373 
	C98.723373,85.265739 95.204750,77.010895 88.652466,74.794960 
	C83.478554,73.045181 76.293785,74.754524 73.287392,79.259163 
	C70.187157,83.904404 71.939896,92.743172 77.571075,97.121857 
z"/>
<path fill="#0074FF" opacity="1.000000" stroke="none" 
	d="
M567.268066,73.650116 
	C560.746521,62.516472 554.432922,51.694141 547.552673,39.900425 
	C547.552673,58.312347 547.552673,75.434647 547.552673,92.778198 
	C542.936523,92.778198 538.327759,92.778198 533.357910,92.778198 
	C533.357910,67.761566 533.357910,42.706711 533.357910,17.325130 
	C539.327332,17.325130 545.412415,17.325130 551.603760,17.325130 
	C561.785217,34.630341 572.043457,52.066013 582.947815,70.599831 
	C582.947815,52.099850 582.947815,34.771503 582.947815,17.225924 
	C588.054749,17.225924 592.663757,17.225924 597.637939,17.225924 
	C597.637939,42.229740 597.637939,67.284798 597.637939,92.980980 
	C592.010681,92.980980 586.244507,93.089943 580.490906,92.870193 
	C579.567505,92.834923 578.480713,91.472366 577.843384,90.482628 
	C574.323547,85.016792 570.919678,79.476326 567.268066,73.650116 
z"/>
<path fill="#0074FF" opacity="1.000000" stroke="none" 
	d="
M616.000000,47.000000 
	C616.000000,36.868946 616.000000,27.237890 616.000000,17.304756 
	C635.006348,17.304756 653.718811,17.304756 672.716431,17.304756 
	C672.716431,21.722904 672.716431,26.112625 672.716431,30.986837 
	C659.542786,30.986837 646.485596,30.986837 633.219604,30.986837 
	C633.219604,36.732544 633.219604,42.005127 633.219604,47.764091 
	C643.225586,47.764091 653.285950,47.764091 663.670044,47.764091 
	C663.670044,52.296295 663.670044,56.352528 663.670044,60.898735 
	C653.636841,60.898735 643.575745,60.898735 633.262329,60.898735 
	C633.262329,67.101379 633.262329,72.823067 633.262329,78.850822 
	C646.713745,78.850822 659.981140,78.850822 673.623291,78.850822 
	C673.623291,83.531296 673.623291,87.924187 673.623291,92.661469 
	C654.733459,92.661469 635.686646,92.661469 616.000000,92.661469 
	C616.000000,77.660393 616.000000,62.580196 616.000000,47.000000 
z"/>
<path fill="#231F20" opacity="1.000000" stroke="none" 
	d="
M429.000000,74.998550 
	C429.000000,61.511513 429.000000,48.524277 429.000000,35.537041 
	C428.665375,35.400402 428.330750,35.263767 427.996094,35.127132 
	C426.454163,38.810585 424.769501,42.441708 423.395966,46.186928 
	C418.528809,59.458210 413.585052,72.706802 409.068939,86.098419 
	C407.550598,90.600723 405.548279,93.088516 400.543701,92.028625 
	C399.598206,91.828384 398.573914,91.999947 397.661316,91.999947 
	C390.508484,72.612160 383.429504,53.424690 376.350555,34.237217 
	C375.982788,34.318443 375.614990,34.399673 375.247192,34.480900 
	C375.247192,53.439739 375.247192,72.398582 375.247192,91.677444 
	C372.092346,91.677444 369.356689,91.677444 366.306580,91.677444 
	C366.306580,67.092056 366.306580,42.360973 366.306580,17.314396 
	C370.930878,17.314396 375.674713,17.314396 380.781921,17.314396 
	C387.741364,37.021328 394.777252,56.944813 402.144135,77.805481 
	C402.922668,75.870979 403.518982,74.523102 404.013977,73.139000 
	C410.342407,55.443600 416.601532,37.722881 423.084198,20.084269 
	C423.570496,18.761011 425.547974,17.294411 426.967987,17.139582 
	C430.736237,16.728716 434.578918,17.000135 438.694519,17.000135 
	C438.694519,41.930992 438.694519,66.657005 438.694519,91.692085 
	C435.734894,91.692085 432.664246,91.692085 429.000000,91.692085 
	C429.000000,86.362656 429.000000,80.930504 429.000000,74.998550 
z"/>
<path fill="#231F20" opacity="1.000000" stroke="none" 
	d="
M258.332764,34.800220 
	C264.264587,51.808212 264.339294,68.103912 253.432724,82.832130 
	C249.572861,88.044502 243.568558,91.004448 237.022888,92.562653 
	C226.259277,95.124931 215.877121,94.229004 206.834793,87.842056 
	C198.550232,81.990334 194.199783,73.604858 192.779877,63.183811 
	C191.053238,50.511433 192.701874,39.018536 199.934723,28.379066 
	C205.156647,20.697672 212.966507,17.192356 221.572830,16.174095 
	C233.325363,14.783593 244.515900,16.788260 252.819321,26.423964 
	C254.897507,28.835627 256.332275,31.801750 258.332764,34.800220 
M249.004150,69.331772 
	C252.319992,60.754967 252.829834,52.167000 250.073654,43.236732 
	C246.663223,32.186771 239.665222,26.549465 227.512009,25.058405 
	C220.070358,24.145399 210.880325,30.420692 206.636063,37.641872 
	C202.150208,45.274120 202.476318,53.472115 203.231506,61.499695 
	C203.819397,67.749123 206.497299,73.487617 211.429550,78.279877 
	C221.205978,87.778854 242.209198,86.169563 249.004150,69.331772 
z"/>
<path fill="#231F20" opacity="1.000000" stroke="none" 
	d="
M345.802551,63.455223 
	C343.773804,68.775299 342.596924,74.089874 339.918213,78.490227 
	C332.513519,90.654121 320.116516,95.640350 305.852753,93.029892 
	C287.993591,89.761436 280.193146,81.393082 276.860168,63.427460 
	C275.158966,54.257515 276.113373,45.526237 279.116333,37.040134 
	C283.513977,24.612659 292.942474,17.622370 305.791199,16.143621 
	C317.349640,14.813367 328.280426,16.880154 336.682129,26.152746 
	C342.591400,32.674538 345.371704,40.453484 345.943207,49.047527 
	C346.251862,53.689251 345.979401,58.369621 345.802551,63.455223 
M312.369324,84.000000 
	C316.175629,82.908630 320.328583,82.451569 323.718872,80.598885 
	C331.714386,76.229561 333.705658,68.422813 335.203613,59.928169 
	C338.276520,42.502262 330.556915,29.553894 313.742737,25.976320 
	C304.509552,24.011766 294.956238,29.810894 291.158630,36.282738 
	C286.557495,44.123905 286.235626,52.590942 287.154053,60.976955 
	C288.717987,75.257401 298.653229,84.788437 312.369324,84.000000 
z"/>
<path fill="#231F20" opacity="1.000000" stroke="none" 
	d="
M163.258423,82.670929 
	C159.040298,76.307098 155.120041,70.191040 150.965057,64.238838 
	C150.205338,63.150501 148.522064,62.177475 147.209549,62.100643 
	C142.731476,61.838512 138.228577,62.000278 133.315948,62.000278 
	C133.315948,71.800613 133.315948,81.534439 133.315948,91.633171 
	C129.844757,91.633171 126.775024,91.633171 123.349754,91.633171 
	C123.349754,67.186775 123.349754,42.462887 123.349754,17.000000 
	C130.803970,17.000000 138.544342,17.024710 146.284470,16.993019 
	C153.955719,16.961611 161.435974,16.937000 168.321030,21.595921 
	C176.432388,27.084658 177.944397,35.029076 176.791718,43.459862 
	C175.750198,51.077515 171.143448,56.778984 163.236725,59.024860 
	C162.637924,59.194950 162.086517,59.531960 160.973755,60.035366 
	C167.922638,70.665222 174.719101,81.061913 181.868927,91.999153 
	C178.158096,91.999153 174.738007,92.287086 171.409012,91.861855 
	C170.016418,91.683968 168.603821,90.170700 167.579987,88.946922 
	C166.036987,87.102585 164.827103,84.979576 163.258423,82.670929 
M165.713928,44.807751 
	C165.821106,43.492550 165.812561,42.155582 166.055069,40.865829 
	C167.245178,34.536781 163.539902,27.868296 157.278732,27.295372 
	C149.283676,26.563791 141.170990,27.117937 133.342712,27.117937 
	C133.342712,35.759605 133.342712,43.818241 133.342712,51.999878 
	C140.492401,51.999878 147.313156,52.255459 154.103470,51.911037 
	C158.716095,51.677071 163.105591,50.301983 165.713928,44.807751 
z"/>
<path fill="#231F20" opacity="1.000000" stroke="none" 
	d="
M502.247101,32.745392 
	C495.336243,24.427824 486.426910,24.688253 477.459625,26.306740 
	C472.624969,27.179333 467.953674,33.433907 468.011627,37.558521 
	C468.067993,41.571400 473.184265,46.704987 478.413605,47.987190 
	C486.537628,49.979168 494.665222,51.956615 502.786743,53.958858 
	C510.169098,55.778870 514.912842,60.461277 515.884094,67.923744 
	C516.951172,76.123100 514.878052,83.384216 507.288727,88.245926 
	C493.185852,97.280205 471.634674,95.003265 459.376282,83.757217 
	C457.267761,81.822830 455.862610,79.121758 453.987305,76.577850 
	C456.388580,74.495697 458.585785,72.353302 461.069031,70.620964 
	C461.619934,70.236649 463.688110,70.966049 464.199615,71.745628 
	C471.940552,83.543892 482.981995,85.814011 495.867737,83.002258 
	C500.950043,81.893272 505.800507,76.953842 505.984131,72.700974 
	C506.151001,68.835793 502.379852,64.520462 497.025848,63.014126 
	C489.442139,60.880478 481.829559,58.803677 474.141113,57.100685 
	C465.802582,55.253693 459.511108,51.019810 458.148163,42.321278 
	C456.695648,33.050911 459.834320,25.181728 468.365936,20.271818 
	C479.926575,13.618734 498.202545,13.800804 509.764435,24.335772 
	C511.556946,25.969015 513.174988,27.933687 514.349731,30.037687 
	C514.835449,30.907660 514.359009,32.944172 513.588928,33.759167 
	C511.810333,35.641441 509.584839,37.101418 507.528595,38.742268 
	C505.881104,36.860592 504.191803,34.931171 502.247101,32.745392 
z"/>
<path fill="#0074FF" opacity="1.000000" stroke="none" 
	d="
M686.126221,17.000011 
	C706.249817,17.014980 725.885681,17.028719 745.521484,17.056402 
	C745.825073,17.056829 746.128357,17.229258 746.713989,17.407104 
	C746.713989,21.716951 746.713989,26.105078 746.713989,30.979141 
	C738.553650,30.979141 730.491943,30.979141 722.159851,30.979141 
	C722.159851,51.711010 722.159851,71.965393 722.159851,92.609314 
	C716.840759,92.609314 711.779968,92.609314 706.251221,92.609314 
	C706.251221,72.443764 706.251221,52.068375 706.251221,31.213722 
	C697.750793,31.213722 689.690857,31.213722 681.319153,31.213722 
	C681.319153,26.350363 681.319153,21.962311 681.319153,17.236649 
	C682.754639,17.158007 684.196533,17.079014 686.126221,17.000011 
z"/>
<path fill="#0074FF" opacity="1.000000" stroke="none" 
	d="
M60.016624,95.833344 
	C55.284378,99.507271 48.824924,100.221748 45.021496,97.491959 
	C39.636089,93.626747 37.862934,88.702568 39.507877,82.947021 
	C40.982800,77.786354 46.592590,73.254845 52.500530,73.995850 
	C62.950573,75.306587 72.433929,65.743095 71.121819,55.152172 
	C69.994553,46.053165 79.795128,38.928947 88.845703,42.956173 
	C94.432632,45.442181 97.128319,51.041718 95.980476,57.572105 
	C95.209137,61.960445 89.162796,66.564110 84.132538,67.061317 
	C80.300606,67.440071 76.287903,67.790756 72.775261,69.199936 
	C66.686615,71.642563 64.660004,77.065315 63.909145,83.296608 
	C63.459084,87.031616 62.110058,90.658310 60.823475,94.768219 
	C60.263020,95.365883 60.107937,95.576088 60.016624,95.833344 
z"/>
<path fill="#0074FF" opacity="1.000000" stroke="none" 
	d="
M20.079355,74.000000 
	C29.861456,75.382782 40.259182,65.430130 39.138813,54.637783 
	C38.420822,47.721478 42.800861,42.828907 48.811375,42.000450 
	C56.719387,40.910450 61.587219,44.931576 63.603317,51.188087 
	C66.129478,59.027466 59.407112,66.843491 50.303440,66.999947 
	C39.263508,67.189674 33.605267,71.675003 31.409615,82.238785 
	C30.945545,84.471527 31.277308,86.858086 30.973812,89.138008 
	C30.101757,95.689072 24.826256,99.500702 17.526533,98.998474 
	C11.395899,98.576683 7.036856,93.894997 7.000015,87.692810 
	C6.945081,78.444603 10.915064,74.142181 20.079355,74.000000 
z"/>
<path fill="#0074FF" opacity="1.000000" stroke="none" 
	d="
M60.016624,30.833336 
	C57.259830,33.625919 53.871395,34.079002 50.084534,34.066658 
	C38.813648,34.029915 33.425819,40.415359 31.111059,50.073948 
	C30.358389,53.214539 30.944056,56.734982 29.912569,59.736286 
	C28.212393,64.683273 21.929064,67.868752 17.471275,66.773659 
	C10.936049,65.168213 7.059180,60.806313 7.000028,54.992363 
	C6.906185,45.768715 10.527193,42.114384 19.702900,41.987854 
	C31.476072,41.825504 39.409191,34.509438 39.036659,21.710970 
	C38.845726,15.151379 41.405449,12.172992 48.483292,9.900983 
	C53.152603,8.402121 58.705215,10.153752 61.486385,14.002946 
	C64.956726,18.805977 64.839195,24.346710 60.821476,29.770681 
	C60.263020,30.365885 60.107937,30.576084 60.016624,30.833336 
z"/>
<path fill="#0074FF" opacity="1.000000" stroke="none" 
	d="
M26.265053,32.328247 
	C18.237841,37.801609 11.411009,33.994087 8.284360,29.547438 
	C4.011279,23.470360 5.678905,16.082211 12.007050,11.522351 
	C15.561133,8.961391 23.425705,9.595536 27.234814,12.750214 
	C30.595184,15.533248 32.237267,22.861237 30.186216,27.233448 
	C29.347742,29.020819 27.797428,30.474258 26.265053,32.328247 
z"/>
<path fill="#0074FF" opacity="1.000000" stroke="none" 
	d="
M78.556305,33.817543 
	C71.136925,30.460831 69.045692,20.795969 72.819641,15.329184 
	C76.129402,10.534798 81.992172,8.187643 88.451630,10.161826 
	C92.762733,11.479418 96.163589,17.164312 95.999718,22.779257 
	C95.836937,28.357113 92.282822,32.971485 86.894341,33.921749 
	C84.316574,34.376335 81.587296,33.971836 78.556305,33.817543 
z"/>
<path fill="#0074FF" opacity="1.000000" stroke="none" 
	d="
M77.184494,97.042007 
	C71.939896,92.743172 70.187157,83.904404 73.287392,79.259163 
	C76.293785,74.754524 83.478554,73.045181 88.652466,74.794960 
	C95.204750,77.010895 98.723373,85.265739 95.158638,92.432373 
	C91.977135,98.828560 84.575203,100.874825 77.184494,97.042007 
z"/>
<path fill="#0074FF" opacity="1.000000" stroke="none" 
	d="
M60.272671,30.864609 
	C60.107937,30.576084 60.263020,30.365885 60.657608,30.111053 
	C60.731800,30.311539 60.630260,30.603710 60.272671,30.864609 
z"/>
<path fill="#0074FF" opacity="1.000000" stroke="none" 
	d="
M60.272671,95.864609 
	C60.107937,95.576088 60.263020,95.365883 60.657608,95.111053 
	C60.731800,95.311546 60.630260,95.603714 60.272671,95.864609 
z"/>
<path fill="#FFFFFF" opacity="1.000000" stroke="none" 
	d="
M248.987961,69.732437 
	C242.209198,86.169563 221.205978,87.778854 211.429550,78.279877 
	C206.497299,73.487617 203.819397,67.749123 203.231506,61.499695 
	C202.476318,53.472115 202.150208,45.274120 206.636063,37.641872 
	C210.880325,30.420692 220.070358,24.145399 227.512009,25.058405 
	C239.665222,26.549465 246.663223,32.186771 250.073654,43.236732 
	C252.829834,52.167000 252.319992,60.754967 248.987961,69.732437 
z"/>
<path fill="#FFFFFF" opacity="1.000000" stroke="none" 
	d="
M311.913361,84.000000 
	C298.653229,84.788437 288.717987,75.257401 287.154053,60.976955 
	C286.235626,52.590942 286.557495,44.123905 291.158630,36.282738 
	C294.956238,29.810894 304.509552,24.011766 313.742737,25.976320 
	C330.556915,29.553894 338.276520,42.502262 335.203613,59.928169 
	C333.705658,68.422813 331.714386,76.229561 323.718872,80.598885 
	C320.328583,82.451569 316.175629,82.908630 311.913361,84.000000 
z"/>
<path fill="#FFFFFF" opacity="1.000000" stroke="none" 
	d="
M165.427094,45.083511 
	C163.105591,50.301983 158.716095,51.677071 154.103470,51.911037 
	C147.313156,52.255459 140.492401,51.999878 133.342712,51.999878 
	C133.342712,43.818241 133.342712,35.759605 133.342712,27.117937 
	C141.170990,27.117937 149.283676,26.563791 157.278732,27.295372 
	C163.539902,27.868296 167.245178,34.536781 166.055069,40.865829 
	C165.812561,42.155582 165.821106,43.492550 165.427094,45.083511 
z"/>
</svg>